<svg width="1175" height="1080" viewBox="0 0 1175 1080" fill="none" xmlns="http://www.w3.org/2000/svg">
<path opacity="0.0526316" d="M69.0933 871.775C94.375 903.049 175.178 955.382 296.136 914.523C447.334 863.449 505.811 728.066 640.757 657.869C740.358 606.058 1007.99 528.286 1161.88 614.225" stroke="#D76223" stroke-opacity="0.3" stroke-width="1.45842"/>
<path opacity="0.105263" d="M44.1566 806.212C65.784 839.771 140.261 899.671 265.15 870.792C421.261 834.693 494.638 705.735 636.736 649.037C741.616 607.19 1016.52 555.856 1159.91 656.281" stroke="#D76223" stroke-opacity="0.3" stroke-width="1.45842"/>
<path opacity="0.157895" d="M25.3177 739.765C43.0538 775.243 110.389 842.053 237.84 825.47C397.155 804.741 484.626 683.621 632.321 641.045C741.33 609.62 1020.5 585.286 1151.82 699.096" stroke="#D76223" stroke-opacity="0.3" stroke-width="1.45842"/>
<path opacity="0.210526" d="M12.6426 673.03C26.293 710.037 85.7483 783.026 214.366 778.921C375.138 773.79 475.747 661.835 627.418 633.846C739.363 613.188 1019.74 616.12 1137.54 742.069" stroke="#D76223" stroke-opacity="0.3" stroke-width="1.45842"/>
<path opacity="0.263158" d="M6.12955 606.61C15.5448 644.741 66.4691 723.108 194.844 731.526C355.312 742.049 467.955 640.485 621.943 627.391C735.597 617.726 1014.11 647.892 1117.1 784.6" stroke="#D76223" stroke-opacity="0.3" stroke-width="1.45842"/>
<path opacity="0.315789" d="M5.70994 541.1C10.7869 579.938 52.6221 662.825 179.347 683.673C337.753 709.734 461.198 619.675 615.813 621.619C729.932 623.053 1003.53 680.122 1090.59 826.092" stroke="#D76223" stroke-opacity="0.3" stroke-width="1.45842"/>
<path opacity="0.368421" d="M11.2321 477.083C11.9201 516.205 44.2162 602.715 167.897 635.782C322.499 677.116 455.371 599.556 608.911 616.534C722.235 629.065 987.906 712.45 1058.09 866.102" stroke="#D76223" stroke-opacity="0.3" stroke-width="1.45842"/>
<path opacity="0.421053" d="M22.5186 415.135C18.8072 454.111 41.205 543.294 160.487 588.21C309.589 644.355 450.441 580.136 601.224 611.954C712.514 635.438 967.347 744.207 1019.88 903.853" stroke="#D76223" stroke-opacity="0.3" stroke-width="1.45842"/>
<path opacity="0.473684" d="M39.3289 355.821C31.2499 394.216 43.4902 485.066 157.084 541.306C299.076 611.605 446.409 561.422 592.812 607.695C700.868 641.848 942.107 774.735 976.394 938.575" stroke="#D76223" stroke-opacity="0.3" stroke-width="1.45842"/>
<path opacity="0.526316" d="M61.2839 299.63C48.9327 337.03 50.8925 428.572 157.541 495.544C290.852 579.258 443.02 543.67 583.419 603.918C687.043 648.386 912.022 803.991 927.702 970.266" stroke="#D76223" stroke-opacity="0.3" stroke-width="1.45842"/>
<path opacity="0.578947" d="M88.0258 247.062C71.5378 283.056 63.1956 374.288 161.731 451.258C284.901 547.47 440.236 526.866 573.092 600.43C671.15 654.725 877.403 831.344 874.304 998.232" stroke="#D76223" stroke-opacity="0.3" stroke-width="1.45842"/>
<path opacity="0.631579" d="M119.121 198.562C98.6772 232.756 80.1245 322.677 169.467 408.802C281.146 516.458 437.947 511.064 561.805 597.137C653.222 660.666 838.489 856.363 816.646 1022.03" stroke="#D76223" stroke-opacity="0.3" stroke-width="1.45842"/>
<path opacity="0.684211" d="M154.09 154.528C129.914 186.549 101.353 274.174 180.525 368.51C279.489 486.431 436.037 496.306 549.54 593.945C633.314 666.011 795.566 878.642 755.218 1041.28" stroke="#D76223" stroke-opacity="0.3" stroke-width="1.45842"/>
<path opacity="0.736842" d="M192.408 115.315C164.764 144.81 126.51 229.179 194.642 330.694C279.807 457.586 434.388 482.622 536.292 590.759C611.506 670.571 748.965 897.807 690.554 1055.64" stroke="#D76223" stroke-opacity="0.3" stroke-width="1.45842"/>
<path opacity="0.789474" d="M233.514 81.2212C202.706 107.868 155.176 188.058 211.523 295.637C281.957 430.112 432.876 470.035 522.066 587.483C587.894 674.168 699.054 913.519 623.22 1064.81" stroke="#D76223" stroke-opacity="0.3" stroke-width="1.45842"/>
<path opacity="0.842105" d="M276.819 52.4881C243.184 75.995 186.9 151.125 230.844 263.592C285.774 404.176 431.378 458.548 506.876 584.021C562.599 676.629 646.242 925.472 553.815 1068.56" stroke="#D76223" stroke-opacity="0.3" stroke-width="1.45842"/>
<path opacity="0.894737" d="M321.708 29.3024C285.615 49.4114 221.193 118.66 252.252 234.782C291.077 379.934 429.771 448.159 490.749 580.283C535.756 677.8 590.966 933.409 482.959 1066.73" stroke="#D76223" stroke-opacity="0.3" stroke-width="1.45842"/>
<path opacity="0.947368" d="M367.548 11.7856C329.392 28.2766 257.538 90.8846 275.373 209.389C297.666 357.519 427.931 438.851 473.722 576.177C507.519 677.534 533.691 937.108 411.288 1059.2" stroke="#D76223" stroke-opacity="0.3" stroke-width="1.45842"/>
<path d="M413.696 0C373.895 12.6922 295.396 67.9737 299.811 187.562C305.33 337.048 425.737 430.594 455.839 571.618C478.056 675.705 474.903 936.401 339.445 1045.93" stroke="#D76223" stroke-opacity="0.3" stroke-width="1.45842"/>
</svg>
