<svg width="28" height="26" viewBox="0 0 28 26" fill="none" xmlns="http://www.w3.org/2000/svg">
<path d="M0.875 6.93333H1.75V12.1333H0.875C0.760094 12.1333 0.646312 12.1109 0.540152 12.0674C0.433992 12.0238 0.337533 11.96 0.256282 11.8795C0.175031 11.799 0.110578 11.7035 0.0666054 11.5983C0.0226326 11.4932 0 11.3805 0 11.2667V7.8C0 7.57015 0.0921876 7.34971 0.256282 7.18717C0.420376 7.02464 0.642936 6.93333 0.875 6.93333ZM27.125 6.93333H26.25V12.1333H27.125C27.2399 12.1333 27.3537 12.1109 27.4599 12.0674C27.566 12.0238 27.6625 11.96 27.7437 11.8795C27.825 11.799 27.8894 11.7035 27.9334 11.5983C27.9774 11.4932 28 11.3805 28 11.2667V7.8C28 7.57015 27.9078 7.34971 27.7437 7.18717C27.5796 7.02464 27.3571 6.93333 27.125 6.93333ZM24.5 5.2V20.8C24.5 21.2597 24.3156 21.7006 23.9874 22.0257C23.6592 22.3507 23.2141 22.5333 22.75 22.5333V24.2667C22.75 24.7264 22.5656 25.1673 22.2374 25.4923C21.9093 25.8174 21.4641 26 21 26H19.25C18.7859 26 18.3408 25.8174 18.0126 25.4923C17.6844 25.1673 17.5 24.7264 17.5 24.2667V22.5333H10.5V24.2667C10.5 24.7264 10.3156 25.1673 9.98744 25.4923C9.65925 25.8174 9.21413 26 8.75 26H7C6.53587 26 6.09075 25.8174 5.76256 25.4923C5.43437 25.1673 5.25 24.7264 5.25 24.2667V22.5333C4.78587 22.5333 4.34075 22.3507 4.01256 22.0257C3.68438 21.7006 3.5 21.2597 3.5 20.8V5.2C3.5 3.82087 4.05312 2.49823 5.03769 1.52304C6.02226 0.547855 7.35761 0 8.75 0H19.25C20.6424 0 21.9777 0.547855 22.9623 1.52304C23.9469 2.49823 24.5 3.82087 24.5 5.2ZM10.5 3.46667H17.5V1.73333H10.5V3.46667ZM8.75 19.0667C8.75 18.7238 8.64737 18.3887 8.45507 18.1037C8.26278 17.8186 7.98947 17.5965 7.6697 17.4653C7.34993 17.3341 6.99806 17.2998 6.65859 17.3666C6.31913 17.4335 6.00731 17.5986 5.76256 17.841C5.51782 18.0834 5.35115 18.3923 5.28363 18.7285C5.2161 19.0647 5.25076 19.4133 5.38321 19.73C5.51567 20.0467 5.73997 20.3174 6.02775 20.5079C6.31554 20.6983 6.65388 20.8 7 20.8C7.46413 20.8 7.90925 20.6174 8.23744 20.2923C8.56563 19.9673 8.75 19.5264 8.75 19.0667ZM22.75 19.0667C22.75 18.7238 22.6474 18.3887 22.4551 18.1037C22.2628 17.8186 21.9895 17.5965 21.6697 17.4653C21.3499 17.3341 20.9981 17.2998 20.6586 17.3666C20.3191 17.4335 20.0073 17.5986 19.7626 17.841C19.5178 18.0834 19.3512 18.3923 19.2836 18.7285C19.2161 19.0647 19.2508 19.4133 19.3832 19.73C19.5157 20.0467 19.74 20.3174 20.0278 20.5079C20.3155 20.6983 20.6539 20.8 21 20.8C21.4641 20.8 21.9093 20.6174 22.2374 20.2923C22.5656 19.9673 22.75 19.5264 22.75 19.0667ZM22.75 5.2H5.25V15.6H22.75V5.2Z" fill="white"/>
</svg>
