<svg width="28" height="21" viewBox="0 0 28 21" fill="none" xmlns="http://www.w3.org/2000/svg">
<path d="M22.61 0.00589089C22.0495 -0.0296489 21.4906 0.0961741 21 0.368339L8.89 7.33849C8.57032 7.5218 8.29018 7.7662 8.06566 8.05765C7.84113 8.34911 7.67666 8.68186 7.58169 9.0368C7.48672 9.39174 7.46313 9.76187 7.51226 10.1259C7.5614 10.49 7.68229 10.8408 7.868 11.1581L9.968 14.7687C10.1509 15.0863 10.3949 15.365 10.686 15.5887C10.977 15.8124 11.3095 15.9769 11.6644 16.0727C12.0193 16.1685 12.3897 16.1937 12.7544 16.147C13.1191 16.1002 13.471 15.9824 13.79 15.8003L16.31 14.4062C16.6908 15.0293 17.259 15.517 17.934 15.8003V18.2119C17.934 18.9514 18.229 19.6605 18.7541 20.1834C19.2792 20.7063 19.9914 21 20.734 21H28V18.2119H20.734V15.8003C21.1898 15.6092 21.5995 15.3237 21.9359 14.9628C22.2724 14.602 22.5279 14.1739 22.6855 13.7072C22.843 13.2405 22.8991 12.7457 22.8498 12.2557C22.8006 11.7657 22.6473 11.2918 22.4 10.8654L25.942 8.83011C26.2628 8.64796 26.5443 8.40442 26.7702 8.11349C26.9962 7.82256 27.162 7.49001 27.2583 7.13498C27.3546 6.77994 27.3794 6.40945 27.3313 6.04483C27.2832 5.68021 27.1631 5.32867 26.978 5.01046L24.878 1.39992C24.65 1.00384 24.3277 0.669582 23.9396 0.426515C23.5514 0.183448 23.1093 0.0390101 22.652 0.00589089M5.908 11.4788L0 12.4546L1.05 14.2668L3.85 19.0902L4.9 20.9024L8.708 16.3021L5.908 11.4788Z" fill="white"/>
</svg>
