<svg width="24" height="29" viewBox="0 0 24 29" fill="none" xmlns="http://www.w3.org/2000/svg">
<path d="M8.52001 20.4H8.28001C3.72 20.4 0 16.68 0 12.12V7.2C0 6.48 0.48 6 1.2 6H15.6C16.32 6 16.8 6.48 16.8 7.2V12.12C16.8 16.68 13.08 20.4 8.52001 20.4ZM2.4 8.4V12.12C2.4 15.36 5.04 18 8.28001 18H8.40001C11.64 18 14.28 15.36 14.28 12.12V8.4H2.4Z" fill="white"/>
<path d="M4.8001 8.40001C4.0801 8.40001 3.6001 7.92001 3.6001 7.20001V1.2C3.6001 0.48 4.0801 0 4.8001 0C5.5201 0 6.0001 0.48 6.0001 1.2V7.20001C6.0001 7.92001 5.5201 8.40001 4.8001 8.40001Z" fill="white"/>
<path d="M12.0001 8.40001C11.28 8.40001 10.8 7.92001 10.8 7.20001V1.2C10.8 0.48 11.28 0 12.0001 0C12.7201 0 13.2001 0.48 13.2001 1.2V7.20001C13.2001 7.92001 12.7201 8.40001 12.0001 8.40001Z" fill="white"/>
<path d="M15.6001 28.8C9.00008 28.8 7.20008 22.56 7.08008 19.2C7.08008 18.48 7.56008 18 8.28008 18C8.88008 18 9.48008 18.48 9.48008 19.2C9.48008 19.44 9.60008 26.4 15.6001 26.4C21.4801 26.4 21.6001 19.44 21.6001 19.2V10.8C21.6001 10.08 22.0801 9.59998 22.8001 9.59998C23.5201 9.59998 24.0001 10.08 24.0001 10.8V19.2C24.0001 22.56 22.2001 28.8 15.6001 28.8Z" fill="white"/>
</svg>
