<svg width="26" height="26" viewBox="0 0 26 26" fill="none" xmlns="http://www.w3.org/2000/svg">
<path d="M25.3841 6.11772L15.6339 3.68022C15.6225 3.67738 15.6103 3.67819 15.5989 3.67575C15.5628 3.66844 15.5262 3.66397 15.4893 3.66153C15.4689 3.65991 15.449 3.65828 15.4287 3.65828C15.3873 3.65909 15.3463 3.66397 15.3052 3.67047C15.2898 3.67291 15.2744 3.67372 15.2597 3.67738C15.2065 3.68916 15.1541 3.70581 15.1033 3.72897C15.1005 3.73059 15.0976 3.731 15.0948 3.73222C15.0444 3.75578 14.9957 3.78422 14.9498 3.81875L11.3748 6.5V3.89025C12.091 3.57581 12.5936 2.86203 12.5936 2.03125C12.5936 0.911219 11.6823 0 10.5623 0C9.44232 0 8.53112 0.911219 8.53112 2.03125C8.53112 2.86203 9.03364 3.57622 9.74985 3.89025V24.375H0.812487C0.363994 24.375 0 24.739 0 25.1875C0 25.636 0.363994 26 0.812487 26H20.3122C20.7607 26 21.1247 25.636 21.1247 25.1875C21.1247 24.739 20.7607 24.375 20.3122 24.375H11.3748V9.75L14.9498 12.4313C14.9936 12.4642 15.0428 12.482 15.0903 12.5048C15.1204 12.519 15.1472 12.5405 15.1789 12.5511C15.263 12.5791 15.3499 12.5937 15.4369 12.5937C15.4393 12.5937 15.4421 12.5929 15.445 12.5929C15.5063 12.5921 15.5673 12.5844 15.627 12.5702C15.6294 12.5698 15.6318 12.5698 15.6343 12.5694L25.3845 10.1319C25.7461 10.0413 26 9.71669 26 9.34375V6.90625C25.9996 6.53291 25.7457 6.20791 25.3841 6.11772ZM14.6248 10.1558L11.9163 8.12459L14.6248 6.09334V10.1558ZM10.5623 1.62459C10.7862 1.62459 10.9686 1.80659 10.9686 2.03084C10.9686 2.25509 10.7862 2.43709 10.5623 2.43709C10.3385 2.43709 10.1561 2.25509 10.1561 2.03084C10.1561 1.80659 10.3385 1.62459 10.5623 1.62459ZM16.2497 5.50875L19.4997 6.32125V9.92753L16.2497 10.74V5.50875ZM24.3746 8.70878L21.1247 9.52128V6.7275L24.3746 7.54V8.70878Z" fill="white"/>
</svg>
