<svg width="24" height="23" viewBox="0 0 24 23" fill="none" xmlns="http://www.w3.org/2000/svg">
<path d="M12 4.38095C11.6764 4.38095 11.36 4.4773 11.0909 4.65782C10.8218 4.83834 10.612 5.09492 10.4882 5.39512C10.3643 5.69531 10.3319 6.02563 10.3951 6.34431C10.4582 6.663 10.6141 6.95573 10.8429 7.18549C11.0718 7.41524 11.3633 7.57171 11.6808 7.6351C11.9982 7.69849 12.3272 7.66596 12.6262 7.54161C12.9252 7.41727 13.1808 7.2067 13.3606 6.93653C13.5404 6.66637 13.6364 6.34874 13.6364 6.02381C13.6364 5.5881 13.464 5.17023 13.1571 4.86213C12.8502 4.55404 12.434 4.38095 12 4.38095ZM22.9091 7.66667H22.32C23.3982 6.46382 23.9964 4.90389 24 3.28571C24 2.99524 23.8851 2.71666 23.6805 2.51126C23.4759 2.30587 23.1984 2.19048 22.9091 2.19048H18.3491C18.124 1.55135 17.7076 0.99776 17.1568 0.605599C16.606 0.213438 15.9479 0.00190518 15.2727 0H8.72727C8.05206 0.00190518 7.39396 0.213438 6.8432 0.605599C6.29244 0.99776 5.87598 1.55135 5.65091 2.19048H1.09091C0.801582 2.19048 0.524105 2.30587 0.31952 2.51126C0.114935 2.71666 0 2.99524 0 3.28571C0.00363836 4.90389 0.601839 6.46382 1.68 7.66667H1.09091C0.801582 7.66667 0.524105 7.78206 0.31952 7.98745C0.114935 8.19285 0 8.47143 0 8.7619C0.00363836 10.3801 0.601839 11.94 1.68 13.1429H1.09091C0.801582 13.1429 0.524105 13.2582 0.31952 13.4636C0.114935 13.669 0 13.9476 0 14.2381C0.00286428 15.8195 0.573658 17.3468 1.60764 18.5398C2.64163 19.7328 4.06944 20.5115 5.62909 20.7329C5.84245 21.3898 6.25669 21.9625 6.81291 22.3696C7.36912 22.7766 8.039 22.9972 8.72727 23H15.2727C15.961 22.9972 16.6309 22.7766 17.1871 22.3696C17.7433 21.9625 18.1575 21.3898 18.3709 20.7329C19.9306 20.5115 21.3584 19.7328 22.3924 18.5398C23.4263 17.3468 23.9971 15.8195 24 14.2381C24 13.9476 23.8851 13.669 23.6805 13.4636C23.4759 13.2582 23.1984 13.1429 22.9091 13.1429H22.32C23.3982 11.94 23.9964 10.3801 24 8.7619C24 8.47143 23.8851 8.19285 23.6805 7.98745C23.4759 7.78206 23.1984 7.66667 22.9091 7.66667ZM5.45455 18.4767C4.70082 18.2808 4.01302 17.886 3.46248 17.3333C2.91195 16.7806 2.51874 16.0901 2.32364 15.3333H5.45455V18.4767ZM5.45455 13.0005C4.70082 12.8046 4.01302 12.4098 3.46248 11.8571C2.91195 11.3044 2.51874 10.6139 2.32364 9.85714H5.45455V13.0005ZM5.45455 7.52429C4.70601 7.33852 4.0182 6.96118 3.45818 6.42905C2.92815 5.86681 2.5523 5.17627 2.36727 4.42476H5.45455V7.52429ZM16.3636 19.7143C16.3636 20.0048 16.2487 20.2833 16.0441 20.4887C15.8395 20.6941 15.5621 20.8095 15.2727 20.8095H8.72727C8.43795 20.8095 8.16047 20.6941 7.95588 20.4887C7.7513 20.2833 7.63636 20.0048 7.63636 19.7143V3.28571C7.63636 2.99524 7.7513 2.71666 7.95588 2.51126C8.16047 2.30587 8.43795 2.19048 8.72727 2.19048H15.2727C15.5621 2.19048 15.8395 2.30587 16.0441 2.51126C16.2487 2.71666 16.3636 2.99524 16.3636 3.28571V19.7143ZM20.5418 17.3376C19.9818 17.8698 19.294 18.2471 18.5455 18.4329V15.3333H21.6764C21.4788 16.0894 21.0877 16.7803 20.5418 17.3376ZM20.5418 11.8614C19.9818 12.3936 19.294 12.7709 18.5455 12.9567V9.85714H21.6764C21.4788 10.6132 21.0877 11.3041 20.5418 11.8614ZM20.5418 6.38524C19.9818 6.91737 19.294 7.29471 18.5455 7.48048V4.38095H21.6764C21.4788 5.13698 21.0877 5.82796 20.5418 6.38524ZM12 15.3333C11.6764 15.3333 11.36 15.4297 11.0909 15.6102C10.8218 15.7907 10.612 16.0473 10.4882 16.3475C10.3643 16.6477 10.3319 16.978 10.3951 17.2967C10.4582 17.6154 10.6141 17.9081 10.8429 18.1379C11.0718 18.3676 11.3633 18.5241 11.6808 18.5875C11.9982 18.6509 12.3272 18.6183 12.6262 18.494C12.9252 18.3696 13.1808 18.1591 13.3606 17.8889C13.5404 17.6187 13.6364 17.3011 13.6364 16.9762C13.6364 16.5405 13.464 16.1226 13.1571 15.8145C12.8502 15.5064 12.434 15.3333 12 15.3333ZM12 9.85714C11.6764 9.85714 11.36 9.95349 11.0909 10.134C10.8218 10.3145 10.612 10.5711 10.4882 10.8713C10.3643 11.1715 10.3319 11.5018 10.3951 11.8205C10.4582 12.1392 10.6141 12.4319 10.8429 12.6617C11.0718 12.8914 11.3633 13.0479 11.6808 13.1113C11.9982 13.1747 12.3272 13.1421 12.6262 13.0178C12.9252 12.8935 13.1808 12.6829 13.3606 12.4127C13.5404 12.1426 13.6364 11.8249 13.6364 11.5C13.6364 11.0643 13.464 10.6464 13.1571 10.3383C12.8502 10.0302 12.434 9.85714 12 9.85714Z" fill="white"/>
</svg>
